<svg width="30" height="44" viewBox="0 0 30 44" fill="none" xmlns="http://www.w3.org/2000/svg">
<rect y="11" width="24" height="23" rx="3" fill="#C4C4C4"/>
<ellipse cx="11.5" cy="10" rx="7.5" ry="10" fill="#4D0000"/>
<ellipse cx="11.5" cy="12" rx="5.5" ry="10" fill="#FFF8F2"/>
<rect y="10" width="23" height="24.3712" rx="3" fill="#4D0000"/>
<rect x="2" y="12" width="19" height="20" rx="1" fill="#FFF8F2"/>
<circle cx="20" cy="31" r="10" fill="#FF4500"/>
<path d="M20.36 37.22C18.9867 37.22 17.9467 36.72 17.24 35.72C16.5467 34.7067 16.2 33.24 16.2 31.32C16.2 29.4933 16.5533 28.0733 17.26 27.06C17.9667 26.0467 19 25.54 20.36 25.54C21.72 25.54 22.7533 26.0467 23.46 27.06C24.1667 28.0733 24.52 29.4933 24.52 31.32C24.52 33.24 24.1667 34.7067 23.46 35.72C22.7667 36.72 21.7333 37.22 20.36 37.22ZM20.36 36.16C21.2267 36.16 21.8867 35.7467 22.34 34.92C22.8067 34.0933 23.04 32.8933 23.04 31.32C23.04 29.7867 22.8067 28.62 22.34 27.82C21.8867 27.0067 21.2267 26.6 20.36 26.6C19.4933 26.6 18.8267 27.0067 18.36 27.82C17.9067 28.62 17.68 29.7867 17.68 31.32C17.68 32.8933 17.9067 34.0933 18.36 34.92C18.8267 35.7467 19.4933 36.16 20.36 36.16Z" fill="#FFF8F2"/>
<circle cx="20" cy="31" r="10" fill="#FF4500"/>
<path d="M23.2324 31.8096C23.2324 33.2406 22.9635 34.3206 22.4258 35.0498C21.8926 35.7744 21.0791 36.1367 19.9854 36.1367C18.9098 36.1367 18.0986 35.7835 17.5518 35.0771C17.0094 34.3662 16.7314 33.3158 16.7178 31.9258V30.2031C16.7178 28.7721 16.9844 27.6989 17.5176 26.9834C18.0553 26.2679 18.8734 25.9102 19.9717 25.9102C21.0609 25.9102 21.8721 26.2588 22.4053 26.9561C22.943 27.6533 23.2188 28.6969 23.2324 30.0869V31.8096ZM21.5713 29.9502C21.5713 29.016 21.4437 28.3324 21.1885 27.8994C20.9333 27.4619 20.5277 27.2432 19.9717 27.2432C19.4294 27.2432 19.0306 27.4505 18.7754 27.8652C18.5202 28.2754 18.3857 28.918 18.3721 29.793V32.0488C18.3721 32.9785 18.502 33.6712 18.7617 34.127C19.0215 34.5827 19.4294 34.8105 19.9854 34.8105C20.5186 34.8105 20.9128 34.6009 21.168 34.1816C21.4232 33.7578 21.5576 33.097 21.5713 32.1992V29.9502Z" fill="#FFF8F2"/>
</svg>
